<svg width="20" height="18" viewBox="0 0 20 18" fill="none" xmlns="http://www.w3.org/2000/svg">
<path fill-rule="evenodd" clip-rule="evenodd" d="M0 4.99997H20C20 4.39597 19.632 3.85297 19.072 3.62897L10.557 0.222973C10.1994 0.0799725 9.80057 0.0799725 9.443 0.222973L0.928 3.62897C0.368 3.85297 0 4.39597 0 4.99997ZM0 6.99997V7.99997C0 8.26519 0.105357 8.51954 0.292893 8.70708C0.48043 8.89462 0.734784 8.99997 1 8.99997V16C0.734784 16 0.48043 16.1053 0.292893 16.2929C0.105357 16.4804 0 16.7348 0 17C0 17.2652 0.105357 17.5195 0.292893 17.7071C0.48043 17.8946 0.734784 18 1 18H19C19.2652 18 19.5196 17.8946 19.7071 17.7071C19.8946 17.5195 20 17.2652 20 17C20 16.7348 19.8946 16.4804 19.7071 16.2929C19.5196 16.1053 19.2652 16 19 16V8.99997C19.2652 8.99997 19.5196 8.89462 19.7071 8.70708C19.8946 8.51954 20 8.26519 20 7.99997V6.99997H0ZM4 8.99997H6V16H4V8.99997ZM11 8.99997H9V16H11V8.99997ZM14 8.99997H16V16H14V8.99997Z" fill="#656084"/>
</svg>
