<svg width="16" height="16" viewBox="0 0 16 16" fill="none" xmlns="http://www.w3.org/2000/svg">
<path d="M9.428 11.999L11 8.46001L12.573 11.998H9.428V11.999ZM15.914 14.593L11.914 5.59301C11.8355 5.41614 11.7073 5.26585 11.5451 5.16036C11.3829 5.05488 11.1935 4.99873 11 4.99873C10.8065 4.99873 10.6171 5.05488 10.4549 5.16036C10.2927 5.26585 10.1645 5.41614 10.086 5.59301L8.128 9.99901H8C6.724 9.99901 5.76 9.69901 5.035 9.28301L5.047 9.27101C6.339 7.82801 6.824 5.73501 6.987 3.99901H8C8.26522 3.99901 8.51957 3.89366 8.70711 3.70612C8.89464 3.51858 9 3.26423 9 2.99901C9 2.7338 8.89464 2.47944 8.70711 2.29191C8.51957 2.10437 8.26522 1.99901 8 1.99901H7.058C7.043 1.36901 7 0.948015 6.994 0.889015C6.97981 0.758469 6.94 0.632006 6.87685 0.516875C6.8137 0.401743 6.72844 0.300207 6.62598 0.218084C6.52351 0.135962 6.40584 0.0748693 6.27972 0.0383066C6.1536 0.00174385 6.0215 -0.00956956 5.891 0.00501477C5.6276 0.0344415 5.38658 0.167029 5.22072 0.373752C5.05485 0.580476 4.97765 0.844495 5.006 1.10801C5.006 1.12101 5.041 1.46701 5.056 1.99801H1C0.734784 1.99801 0.48043 2.10337 0.292893 2.29091C0.105357 2.47844 0 2.7328 0 2.99801C0 3.26323 0.105357 3.51758 0.292893 3.70512C0.48043 3.89266 0.734784 3.99801 1 3.99801H4.98C4.837 5.36801 4.465 6.92001 3.56 7.93301C3.30161 7.57261 3.10243 7.17324 2.97 6.75001C2.90476 6.49302 2.74009 6.27247 2.51224 6.13688C2.28438 6.00129 2.01199 5.96177 1.755 6.02702C1.49801 6.09226 1.27745 6.25692 1.14187 6.48478C1.00628 6.71263 0.966757 6.98502 1.032 7.24201C1.15 7.71601 1.405 8.31201 1.81 8.92101C1.556 8.97101 1.288 8.99901 1 8.99901C0.734784 8.99901 0.48043 9.10437 0.292893 9.29191C0.105357 9.47944 0 9.7338 0 9.99901C0 10.2642 0.105357 10.5186 0.292893 10.7061C0.48043 10.8937 0.734784 10.999 1 10.999C1.857 10.999 2.629 10.839 3.322 10.532C4.284 11.266 5.575 11.835 7.254 11.967L6.087 14.593C5.99219 14.8332 5.99385 15.1007 6.09163 15.3397C6.18941 15.5786 6.37575 15.7706 6.61172 15.8754C6.84768 15.9802 7.11503 15.9898 7.35789 15.9021C7.60076 15.8145 7.80036 15.6364 7.915 15.405L8.54 13.999H13.462L14.087 15.405C14.1947 15.6474 14.3942 15.8371 14.6418 15.9324C14.8893 16.0277 15.1646 16.0207 15.407 15.913C15.6494 15.8053 15.8391 15.6058 15.9344 15.3582C16.0296 15.1107 16.0227 14.8354 15.915 14.593H15.914Z" fill="#656084"/>
</svg>
